<svg xmlns="http://www.w3.org/2000/svg" viewBox="0 0 300 300"><path d="M271.07,50.34,300,118.12l-18.43,8.12L262.05,79.93l-70.83,46.29c-6.56-15.43-13.06-30.69-19.7-46.29l-70,46.29c-6.58-15.5-13-30.72-19.63-46.29L11.09,126.25.15,110,90.63,50.34l20,46.3L181,50.35l19.69,46.29Z" transform="translate(0 -50.34)"/><path d="M10.91,251,0,234.71l90.46-59.6c6.66,15.42,13.23,30.66,20,46.29l70.38-46.28c6.59,15.48,13.08,30.75,19.69,46.29l70.39-46.3c9.67,22.64,19.25,45.09,28.94,67.77L281.41,251,261.94,204.7,191.22,251l-19.7-46.29-70,46.29c-6.6-15.42-13.13-30.69-19.8-46.29Z" transform="translate(0 -50.34)"/></svg>