<svg xmlns="http://www.w3.org/2000/svg" viewBox="0 0 300 300"><path d="M243.46,123.91c0-4.75-.41-8.92.2-12.93.24-1.54,2.59-3.29,4.36-4,9.66-3.78,18.2-9,24.28-17.64,14.17-20.26,3.17-49.18-20.11-52.75-20.42-3.14-41.09,9.48-49.68,30.12C190.78,94.9,184,124.48,179,154.35,171,202.08,164.25,250,157,297.87a21.82,21.82,0,0,1-.57,2.13H142.54c-1.7-13-3.33-25.94-5.12-38.87-7.51-54.27-15.18-108.53-29.28-161.57A205.72,205.72,0,0,0,93.69,60.45C84.59,42.27,62.93,33,45,37.16,20,43,15.82,72.84,27.14,89.27c5.8,8.42,13.92,13.88,23.36,17.12C55.06,108,57,110,56.37,114.78c-.39,2.82-.07,5.73-.07,8.66C28.56,120.7,3.85,100,.62,71.09-1.47,52.42,1.44,35,13.37,19.87,29.63-.81,55-4.47,76.83,4.84c26.67,11.38,41.51,33.4,47.92,60.49,6.21,26.26,10.56,53,14.55,79.73,4.11,27.51,6.8,55.24,10.64,83,1.35-11.76,2.64-23.53,4.07-35.29,5.18-42.75,9.52-85.65,20.65-127.41,6.08-22.79,17.34-42.5,38-55.31,38.77-24,82.15-2.17,86.52,41,2.11,20.78-2.16,39.42-17.26,54.66C271.56,116.1,258.66,121.28,243.46,123.91Z" transform="translate(0)"/></svg>