<svg xmlns="http://www.w3.org/2000/svg" viewBox="0 0 300 300"><path d="M300,138.05H286.71c-1.73-6.36-3.29-12.79-5.21-19.12C266,67.86,226.83,35.78,173.67,30.17c-25.95-2.74-51.26-1.43-75.26,9.93a86.43,86.43,0,0,0-15.5,9.46c7.93,0,15.92-.64,23.77.11,26.13,2.5,47,20.78,50.56,43.59,4.28,27.68-7.85,50.85-34.18,61.48C95.68,165.8,68,165.63,42.3,149.66c-20.91-13-28.91-33.47-28.16-57.49.77-24.69,12.21-44.12,31-59.43C74.42,8.91,108.86.73,145.7.71c29.24,0,57.6,4.69,83.63,18.94C261,37,282.49,62.86,292.25,97.7,295.87,110.6,297.39,124.1,300,138.05ZM41.65,105.7a75.57,75.57,0,0,0,1.4,9.06,41.48,41.48,0,0,0,42,30c18.5-1,33.74-11.17,38.9-26,7.81-22.38-5-45-29-51.21C68.32,60.68,41.86,79.66,41.65,105.7Z" transform="translate(0 -0.71)"/><path d="M217.44,248.8c-9.72,0-19.65,1.32-29.1-.25-25.9-4.32-43.13-21.88-46.35-45.43-3.39-24.76,8.73-47,33.1-58.07s49.75-11.6,74.09-.43c25.67,11.77,37,33.48,36.47,61.34-.46,25.13-12,44.86-31,60.48-24.41,20.06-53.14,29.09-84.18,31.26-34.84,2.45-68.74-1.47-100.07-18.22-31.9-17.06-53.19-43.13-62.78-78C4,188.52,2.53,175.05,0,161.27H12.48c3.13,10,5.59,20.36,9.5,30.1,18.75,46.69,54.21,71.41,103.49,77.37,23.18,2.81,46.18,2.27,68.26-6.31,8.34-3.24,16.21-7.71,24.29-11.62C217.82,250.14,217.63,249.47,217.44,248.8Zm-3.81-15c5.66-1,11.49-1.51,17-3.18,24.53-7.52,35.26-36.52,21-57.7-10.35-15.36-25.58-20.68-43.7-18.3-21.28,2.79-36.9,23.83-33.75,45C176.57,215.89,193,232.72,213.63,233.82Z" transform="translate(0 -0.71)"/></svg>