<svg xmlns="http://www.w3.org/2000/svg" viewBox="0 0 300 300"><path d="M99.84,123.25c-2.11-4.11-4.27-8.07-6.2-12.12A81.58,81.58,0,0,1,86,85.76a68.18,68.18,0,0,1,5.81-36.59C99.72,31.57,112.65,17.91,131.31,9c14.06-6.68,29.08-10,45-8.77,28.44,2.22,51.27,13.59,67.23,35.31a70.66,70.66,0,0,1,13.54,34.66,97,97,0,0,1-2.4,32.5c-2.71,11.69-7.17,22.87-11.75,34-7.47,18.2-16.63,35.71-25.75,53.25-6.34,12.2-12.58,24.44-17.9,37a49.68,49.68,0,0,0-3.64,28.22,30.54,30.54,0,0,0,6.62,14.86c5.87,7,13.81,9.88,23.31,9.53,7.88-.29,15-2.79,21.82-6.22a76.25,76.25,0,0,0,15.07-10.05l1-.8L279,277.19c-2.29,1.8-4.48,3.63-6.78,5.32A90.15,90.15,0,0,1,240.13,298c-11.34,2.8-22.65,2.91-33.8-.79a46.86,46.86,0,0,1-26.88-22.08c-5.43-9.61-7.19-19.92-6.75-30.62s3.78-20.76,8.25-30.59c7.22-15.88,15.41-31.34,23.48-46.87a471,471,0,0,0,23.38-51.94,117,117,0,0,0,6.77-26.15c1.47-11.47.68-22.71-4.57-33.44-9.61-19.67-26.56-30.71-49.58-34.41-10.9-1.75-21.46-.38-31.88,3.1C127.17,31.29,112.19,49.7,108.66,69c-2,11,0,21.49,4.41,31.72,3.7,8.58,8.71,16.55,13.65,24.55,4.68,7.56,9.38,15.11,13.16,23.09,3.71,7.8,6.73,15.83,7.81,24.29,3,23.9-6.27,43-27.9,56.89a65.39,65.39,0,0,1-29,9.9,72.36,72.36,0,0,1-19.22-.85c-25.11-4.09-44.93-22.75-50.81-44.81-6.13-23,4-50.2,30.79-64.13a69.73,69.73,0,0,1,37.2-8c3.39.22,6.75.94,10.12,1.44C99.16,123.11,99.48,123.19,99.84,123.25ZM126,180.8c-.26-2.32-.46-4.64-.79-6.94a27.24,27.24,0,0,0-.95-4.37c-6.78-21-31-32.45-52.63-25.9-15.73,4.76-28.92,16.26-30.26,35.2-.54,7.73,1.81,14.91,6.19,21.51,9.45,14.22,25.18,21,42.61,18.73C108.4,216.7,126.82,201,126,180.8Z" transform="translate(-19 0)"/></svg>