<svg xmlns="http://www.w3.org/2000/svg" viewBox="0 0 300 300"><path d="M299.93,191.38H181.67c0-.64-.08-1.21-.08-1.78,0-7.51,0-15,0-22.54a2.74,2.74,0,0,1,1.41-2.63c10.5-7.05,19.14-15.81,24.14-27.62,8.79-20.74,6.43-48-14.07-67.32-10.41-9.83-22.49-16-36.81-17.15-19.32-1.61-36,4.19-49.8,18.08-9.4,9.49-15.65,20.59-17.3,34-2.72,22,4.09,40.43,21.18,54.82,2.36,2,5,3.7,7.41,5.6a2.4,2.4,0,0,1,.92,1.51c0,8.27,0,16.54,0,24.95H.19V163.46h83c-1-1-1.62-1.72-2.26-2.42-8.89-9.64-15.62-20.54-18.47-33.45a77.73,77.73,0,0,1,9.39-58.31C83.19,50.36,99.2,36.7,120.06,29.13c12-4.34,24.43-5.58,37.13-4.72A82.91,82.91,0,0,1,197.68,37.6c16.82,11,29.92,25.26,37,44.36,6,16.19,7.15,32.76,2.23,49.49-3.28,11.17-9.37,20.76-17.18,29.3-.59.64-1.19,1.27-1.78,1.92a7.61,7.61,0,0,0-.44.65c.65,0,1.14.11,1.63.11h79.37a14,14,0,0,0,1.45-.14Z" transform="translate(-0.07 -24.15)"/><path d="M.07,275V247.31c.63,0,1.15-.08,1.68-.08H299.93V275Z" transform="translate(-0.07 -24.15)"/></svg>