<svg xmlns="http://www.w3.org/2000/svg" viewBox="0 0 300 300"><path d="M205.17,300c-6-3.55-12.16-6.73-17.88-10.72-12.51-8.72-17.76-22.73-21.56-37.69-5.9-23.19-8.27-47-9.88-70.89-2.9-43.08-1.46-86.19-.73-129.29.06-3.93-1.18-5.13-4.39-6.24-10.24-3.55-20.36-5.54-30.87-1.32C117,45,115.71,46.44,115.73,50c.26,54.22.37,108.44.65,162.67A12,12,0,0,0,118.5,219c3.34,4.9,7,9.52,11,14.73-11.14,6.39-18.25,16.2-22,29.82-7.64-6.61-14.71-12.69-21.75-18.83-8.43-7.36-8.66-7.52-3.7-17.78a48.67,48.67,0,0,0,4.76-22.32c-.27-51-.19-101.9-.23-152.84v-7c-12.66-2.24-25-5-36,4.81a10.24,10.24,0,0,0-3,6.67q.06,80.24.54,160.48a14.92,14.92,0,0,0,1.54,6.11c2.69,5.59,5.64,11,8.79,17.1-10.19,6.21-16.35,16.16-21.7,27.49-1.17-1-2.21-1.71-3.1-2.62-6.54-6.65-13-13.42-19.63-20-2.12-2.09-3.21-3.89-1.43-6.87,7.51-12.58,8.06-26.59,8-41.19-.36-46.94-.05-93.88,0-140.83V49.57L0,45C6.17,33.45,12,22.47,18.1,11.12c10,5.79,21.14,9.56,33.51,8.17l-2.5,15.36,1,.71A60.06,60.06,0,0,0,55,29.06c3.76-6.39,7.22-13,11-19.36.8-1.35,2.79-3.11,3.81-2.82a97.08,97.08,0,0,0,41.25,2.2V28.47l1.15.32L127.14,4C137.21,5.85,147,8.36,156.86,9.26s20,.2,30.34.2c-.63,6.81-1.73,14.29-1.95,21.79-.94,32.16-2.36,64.33-2.13,96.48.17,22.3,2.24,44.63,4.36,66.84,2,20.56,5.14,41,12.75,60.15a63.78,63.78,0,0,0,7.51,13.94c6.75,9.24,15.17,10.91,23.88,3.85a93,93,0,0,0,16.81-18.17c5.76-8.09,10.33-17.23,15.36-26a8.15,8.15,0,0,0,1-4.82L232.07,246.3c-.48-4-.37-7.55-1.39-10.65-3.13-9.49,1.2-14.13,7.92-19,20.71-15.11,41-31,61.4-46.54v88.44l-18.39,11.71V230.58a18.76,18.76,0,0,0-4.59,6c-10.34,18.54-20.58,37.28-36.42,50.85-5.91,5.07-13,8.41-19.62,12.53Z" transform="translate(0 -4)"/></svg>