<svg xmlns="http://www.w3.org/2000/svg" viewBox="0 0 300 300"><path d="M219.61,99.83a25.89,25.89,0,0,1,8.79-6.31c5.06-2,10.06-1.55,15,.47,6.12,2.5,10.94,6.72,15.11,11.72,7,8.42,11.49,18.15,14.48,28.61a100.44,100.44,0,0,1,3.67,21.14,160.54,160.54,0,0,1-6.38,57.4,109.69,109.69,0,0,1-19,37c-.17.21-.32.43-.54.73a238.42,238.42,0,0,0,37.12,30.19c-4.21,6.41-8.39,12.77-12.62,19.23a261,261,0,0,1-41.07-33.43c-21.32,15.72-45.73,20.93-71.76,21.15-.19-7.68-.38-15.29-.57-23,15.15-.08,29.84-2,43.76-8a71.8,71.8,0,0,0,13.28-7.49c-.28-.4-.53-.77-.79-1.12a118.6,118.6,0,0,1-15.57-26.88,76.08,76.08,0,0,1-5.41-21.08c-.29-3-.46-6.12-.46-9.18q0-57.37,0-114.75a25.87,25.87,0,0,0-2.28-10,129.6,129.6,0,0,0-24.21-38.41c-1.06-1.16-2.26-2.18-3.41-3.26-.24-.23-.53-.42-1-.8-1.9,2-3.94,3.86-5.67,6a107.33,107.33,0,0,0-18.7,33.68,40.3,40.3,0,0,0-2.27,13.18q.06,76,0,152.05v1.53h-23v-1.4q0-75.45,0-150.89a34.42,34.42,0,0,0-2-11.94,126.5,126.5,0,0,0-21.27-38c-1-1.21-2.17-2.27-3.22-3.44a.89.89,0,0,0-1.52,0c-3,3-6.22,5.84-9,9.07a109.24,109.24,0,0,0-16.39,26.1,45.59,45.59,0,0,0-4.07,13.24,24.67,24.67,0,0,0-.17,3.1c0,1.68,0,3.37,0,5.06q0,73.89,0,147.79v1.4h-23V81.24c0-11.75-1.51-23.25-5.51-34.34A74.23,74.23,0,0,0,15.79,22.16c-1.17-1.31-2.5-2.48-3.85-3.8L27.05,1A77.07,77.07,0,0,1,40.43,16.5,100.3,100.3,0,0,1,50,34.56c.28-.4.49-.7.69-1A124.19,124.19,0,0,1,69.13,10.4C72.91,6.79,77,3.53,81.88,1.52A18.52,18.52,0,0,1,99.06,2.84a42.16,42.16,0,0,1,10.24,8.82c6.87,7.76,12.33,16.5,17.25,25.59.15.27.29.53.53,1,.36-.67.66-1.23,1-1.79a116.55,116.55,0,0,1,18.08-25.69,38.17,38.17,0,0,1,12.07-9c6-2.64,11.77-2.1,17.41,1a43.35,43.35,0,0,1,10.69,8.64,151.58,151.58,0,0,1,29.5,46.42A47.3,47.3,0,0,1,219.65,77c-.18,7.09,0,14.19,0,21.29ZM236,116c-1,1.35-2,2.61-2.82,4A94.08,94.08,0,0,0,223,142.9c-1.89,6.13-3.37,12.36-3.39,18.83,0,10.09,0,20.18,0,30.27a51,51,0,0,0,1.72,13.07,78.83,78.83,0,0,0,10.91,23.19c1,1.49,2,3,3.16,4.6,1.5-2.38,3-4.54,4.27-6.79,6.51-11.21,10.23-23.38,12.37-36.1a155.44,155.44,0,0,0,2-22.9,95.48,95.48,0,0,0-2-21.6A60.73,60.73,0,0,0,242.77,123,26.07,26.07,0,0,0,236,116Z" transform="translate(-11.94 0)"/></svg>